<svg xmlns="http://www.w3.org/2000/svg" viewBox="0 0 100 100" width="100" height="100">
  <defs>
    <radialGradient id="catGrad" cx="50%" cy="50%" r="50%">
      <stop offset="0%" style="stop-color:#FFB347;stop-opacity:1" />
      <stop offset="100%" style="stop-color:#FF8C00;stop-opacity:1" />
    </radialGradient>
  </defs>
  <rect width="100" height="100" fill="#FFF5EE" rx="10"/>
  <g transform="translate(50,50)">
    <!-- 猫头 -->
    <circle cx="0" cy="-5" r="18" fill="url(#catGrad)"/>
    <!-- 猫耳朵 -->
    <polygon points="-12,-18 -8,-25 -18,-20" fill="url(#catGrad)"/>
    <polygon points="12,-18 8,-25 18,-20" fill="url(#catGrad)"/>
    <!-- 耳朵内部 -->
    <polygon points="-12,-18 -10,-22 -15,-19" fill="#FFB6C1"/>
    <polygon points="12,-18 10,-22 15,-19" fill="#FFB6C1"/>
    <!-- 眼睛 -->
    <ellipse cx="-6" cy="-8" rx="3" ry="4" fill="#32CD32"/>
    <ellipse cx="6" cy="-8" rx="3" ry="4" fill="#32CD32"/>
    <!-- 瞳孔 -->
    <ellipse cx="-6" cy="-8" rx="1" ry="3" fill="#000"/>
    <ellipse cx="6" cy="-8" rx="1" ry="3" fill="#000"/>
    <!-- 鼻子 -->
    <polygon points="0,-2 -2,0 2,0" fill="#FFB6C1"/>
    <!-- 嘴巴 -->
    <path d="M 0,0 Q -4,3 -6,1" stroke="#000" stroke-width="1" fill="none"/>
    <path d="M 0,0 Q 4,3 6,1" stroke="#000" stroke-width="1" fill="none"/>
    <!-- 胡须 -->
    <line x1="-15" y1="-3" x2="-20" y2="-2" stroke="#000" stroke-width="1"/>
    <line x1="-15" y1="0" x2="-20" y2="0" stroke="#000" stroke-width="1"/>
    <line x1="15" y1="-3" x2="20" y2="-2" stroke="#000" stroke-width="1"/>
    <line x1="15" y1="0" x2="20" y2="0" stroke="#000" stroke-width="1"/>
    <!-- 身体 -->
    <ellipse cx="0" cy="15" rx="12" ry="8" fill="url(#catGrad)"/>
  </g>
</svg>