<svg xmlns="http://www.w3.org/2000/svg" viewBox="0 0 100 100" width="100" height="100">
  <defs>
    <linearGradient id="houseGrad" x1="0%" y1="0%" x2="100%" y2="100%">
      <stop offset="0%" style="stop-color:#FFE4B5;stop-opacity:1" />
      <stop offset="100%" style="stop-color:#DEB887;stop-opacity:1" />
    </linearGradient>
    <linearGradient id="roofGrad" x1="0%" y1="0%" x2="100%" y2="100%">
      <stop offset="0%" style="stop-color:#DC143C;stop-opacity:1" />
      <stop offset="100%" style="stop-color:#B22222;stop-opacity:1" />
    </linearGradient>
  </defs>
  <rect width="100" height="100" fill="#87CEEB" rx="10"/>
  <g transform="translate(50,50)">
    <!-- 房屋主体 -->
    <rect x="-15" y="-5" width="30" height="25" fill="url(#houseGrad)" rx="2"/>
    <!-- 屋顶 -->
    <polygon points="-18,-5 0,-20 18,-5" fill="url(#roofGrad)"/>
    <!-- 门 -->
    <rect x="-3" y="8" width="6" height="12" fill="#8B4513" rx="1"/>
    <!-- 门把手 -->
    <circle cx="1" cy="14" r="1" fill="#FFD700"/>
    <!-- 窗户 -->
    <rect x="-12" y="0" width="6" height="6" fill="#87CEEB" rx="1"/>
    <rect x="6" y="0" width="6" height="6" fill="#87CEEB" rx="1"/>
    <!-- 窗框 -->
    <line x1="-9" y1="0" x2="-9" y2="6" stroke="#8B4513" stroke-width="1"/>
    <line x1="-12" y1="3" x2="-6" y2="3" stroke="#8B4513" stroke-width="1"/>
    <line x1="9" y1="0" x2="9" y2="6" stroke="#8B4513" stroke-width="1"/>
    <line x1="6" y1="3" x2="12" y2="3" stroke="#8B4513" stroke-width="1"/>
    <!-- 烟囱 -->
    <rect x="8" y="-18" width="4" height="8" fill="#696969" rx="1"/>
    <!-- 烟 -->
    <circle cx="10" cy="-20" r="1" fill="#D3D3D3" opacity="0.7"/>
    <circle cx="11" cy="-22" r="1" fill="#D3D3D3" opacity="0.5"/>
    <circle cx="9" cy="-24" r="1" fill="#D3D3D3" opacity="0.3"/>
  </g>
</svg>